# xmcd CD database file
#
# Track frame offsets:
#	150
#	21584
#	52903
#	84253
#	124731
#	141651
#	157865
#	165084
#	181637
#	199326
#	220347
#	246682
#	269766
#	296293
#
# Disc length: 4338 seconds
#
# Revision: 0
# Processed by: cddbd v1.5.1PL0 Copyright (c) Steve Scherf et al.
# Submitted via: CDex 1.51
#
DISCID=cb10f00e
DTITLE=Vocal Flight and Studio Singers - Lazy Bones
DYEAR=2001
DGENRE=Jazz
TTITLE0=Way of the World
TTITLE1=Lazy Bones
TTITLE2=Legacy
TTITLE3=Afro Blue
TTITLE4=Honeysuckle Rose
TTITLE5=Fever
TTITLE6=Boplicity
TTITLE7=New York Afternoon
TTITLE8=D.C. Farewell
TTITLE9=Do You Wanna Know What I Want
TTITLE10=Sign of Spring
TTITLE11=Little Girl Blue
TTITLE12=Donde
TTITLE13=Strollin' with Sammy
EXTD=YEAR: 2001
EXTT0=
EXTT1=
EXTT2=
EXTT3=
EXTT4=
EXTT5=
EXTT6=
EXTT7=
EXTT8=
EXTT9=
EXTT10=
EXTT11=
EXTT12=
EXTT13=
PLAYORDER=
